<svg id="Layer_1" data-name="Layer 1" xmlns="http://www.w3.org/2000/svg" viewBox="0 0 320 132"><defs><style>.cls-1{fill:#006e00;}</style></defs><path class="cls-1" d="M30.234,56.058a3.331,3.331,0,0,1,.334-1.812,9.9,9.9,0,0,0,.716-3.624c0-.572-.191-1.144-.811-1.144a1.869,1.869,0,0,0-1.431.906c-.143.238-.191.238-.429.048a1.463,1.463,0,0,1,1.145-2.576c1.239,0,2.145,1.86,2.336,2.146a.658.658,0,0,0,.62.43,10.417,10.417,0,0,1,4.959,2,20.265,20.265,0,0,1,1.907,2.48A10.55,10.55,0,0,1,41.869,61.4a24.055,24.055,0,0,1-.572,4.148c-.095.239.286.43.525.382.333-.1,3.433-1,3.862-1.24.381-.286.572-.334.763-.477a1.031,1.031,0,0,0,.381-.477c.1-.286.477-2.765.572-3.051a1.86,1.86,0,0,0-.333-1.05c-.143-.381-.286-.476-.191-.81a16.032,16.032,0,0,1,4.148-6.2c2.194-1.955,3.481-3.195,6.3-3.195a5.156,5.156,0,0,1,4.053,2.337c.143.286.047.381-.191.334h-.858c-1.908,0-4.244.715-4.244,4.72a12.187,12.187,0,0,0,.238,2c.095.429-.762,1.287-1.049,1.383-.238.143-.286-.1-.477-.382-.619-1-1.335-1.43-3.147-1.43-2.1,0-3.624,1.287-3.624,4.816,0,.954.382,1,.763,1.049A13.845,13.845,0,0,1,54.6,65.786a7.4,7.4,0,0,1,4.005,5.245c.143.811.191,2.146.286,2.67a2.63,2.63,0,0,0,.429,1.193,2.615,2.615,0,0,1,.286,1.335,2.291,2.291,0,0,0,.334,1.1,2.545,2.545,0,0,1,.716,1.479,3.356,3.356,0,0,1,0,1.191,6.085,6.085,0,0,1-.334,1.193.547.547,0,0,1-.525.428,2.374,2.374,0,0,1-1.478-.428,2.507,2.507,0,0,1-.906-1.1.76.76,0,0,1,.239-.477A6.058,6.058,0,0,0,58.7,76.8c0-.382.334-1.193-1.812-1.907a56.094,56.094,0,0,0-6.056-1.479,2.3,2.3,0,0,1-1.049-.572c-.811-.763-2.861-4.577-2.861-6.008,0-.286,0-.382-.334-.477a4.423,4.423,0,0,0-1.478-.143,8.743,8.743,0,0,0-4.149,1.669c-.429.286-.191.762.095,1,.334.286,2.194,2.432,2.194,4.34a7.863,7.863,0,0,1-5.054,7.1,42.366,42.366,0,0,1-5.341,1.479c-2.241.572-2.956,2.049-2.813,2.956.047.19-.1.19-.286.048-.239-.1-.907-.334-.907-1.574a6.207,6.207,0,0,1,1.86-3.624.665.665,0,0,0,.143-.716,5.952,5.952,0,0,0-1.382-.858c-.573-.286-.954-.572-.954-.953,0-.334-.048-.382.62-1.145a7.547,7.547,0,0,1,3.624-1.382,13.656,13.656,0,0,1,4.243,1.382,6.824,6.824,0,0,0,3,.668c1,0,2.05-.62,2.05-3,0-2.765-2.336-5.2-4.339-5.2-.859,0-2.242.811-3.624,1.479-1.431.715-4.435,2.479-7.439,2.479a8.627,8.627,0,0,1-5.817-2.145c-2.48-2.719-3.576-4.149-5.818-4.34a1.635,1.635,0,0,1-1.1-.429c-.239-.334,0-.572.333-.811a27.5,27.5,0,0,1,2.241-2.05,18.3,18.3,0,0,1,8.774-2.671,24.9,24.9,0,0,1,2.861.334c.572.048.906.239,1.669.954,1.145,1.1,3.386,3.815,4.721,4.625a5.5,5.5,0,0,0,2.146.954c1.1,0,4.291-2.527,4.291-4.864A3.429,3.429,0,0,0,37.434,58.3a13.712,13.712,0,0,0-3.481.716,3.085,3.085,0,0,1-.905.191A2.855,2.855,0,0,1,30.234,56.058ZM48.5,66.358c-.286.191-.334.572-.334,1A6.532,6.532,0,0,0,49.5,70.983a3.325,3.325,0,0,0,2.051,1.335c.715.191,5.2.62,5.484.62.286.048.334,0,.429-.238a4.395,4.395,0,0,0,.143-1.43c0-3.338-4.053-5.246-7.2-5.246C49.022,66.024,48.736,66.072,48.5,66.358Z"/><path class="cls-1" d="M76.629,58.538a1.172,1.172,0,0,1,.286.858,2.067,2.067,0,0,1-1.383,1.478.959.959,0,0,1-.763-.381c-.524-.477-1.335-1.287-2.193-1.287a1.842,1.842,0,0,0-1.764,2.05c0,1.049.429,2.336,2,4.673a8.555,8.555,0,0,1,1.431,4.292c-.048,1.525-1.145,2.956-2.957,4.291a7.681,7.681,0,0,1-4.2,1.478,2.6,2.6,0,0,1-2.67-2.431,2.683,2.683,0,0,1,.668-1.909.365.365,0,0,1,.572.1c.763,1.287,2,2.718,3.719,2.718a2.265,2.265,0,0,0,2.384-2.432,8.247,8.247,0,0,0-1.478-4.006c-1.335-2.24-1.764-3.432-1.764-4.291A6.179,6.179,0,0,1,70.859,59.4a6.383,6.383,0,0,1,3.719-1.764A2.663,2.663,0,0,1,76.629,58.538Z"/><path class="cls-1" d="M81.731,60.3a23.262,23.262,0,0,1,.715,6.819,49.486,49.486,0,0,1-.525,6.151c-.1.667.191.525.477.047,2.385-4.673,4.768-12.206,4.768-15.354a.5.5,0,0,1,.382-.381c.763,0,1.192.954,1.192,1.86,0,3-3.814,11.015-5.722,14.448-1,1.86-1.716,3-2.1,3.576a39.107,39.107,0,0,1-7.153,8.869c-2.431,1.86-3.957,2.385-5.245,2.385a2.071,2.071,0,0,1-2.193-2.051,2.113,2.113,0,0,1,1.573-2.05c.382,0,.525.095.716.715a2.15,2.15,0,0,0,1.955,1.526c1.43,0,2.765-.858,4.339-2.718a22.576,22.576,0,0,0,4.1-8.249c.81-4.149,1.192-10.157.095-13.829-.429-1.287-.906-1.907-1.478-1.907-1.1,0-1.907,1.764-2.385,3.147-.238.906-.524.572-.524-.095,0-2.432,2.05-5.531,4.244-5.531C80.348,57.68,81.254,58.824,81.731,60.3Z"/><path class="cls-1" d="M94.318,59.777a43.245,43.245,0,0,1-2,5.055c-.191.524.047.572.333.143,2.241-2.861,6.009-7.295,9.633-7.295A1.768,1.768,0,0,1,104,59.539a8.788,8.788,0,0,1-.811,2.861c-1.1,2.956-3.29,7.915-3.91,9.442-.19.524-.095.667.239.667.572,0,2.527-1.431,3.91-2.956.477-.429.525.142.095.762-2.146,3.148-5.913,5.675-7.725,5.675-.715,0-.906-1.049-.715-1.526.191-.572,5.15-11.349,5.913-13.637.286-1,.095-1.669-.667-1.669-1.05,0-2.862,1.1-5.532,4.625-2.432,3.481-4.482,7.677-6.532,11.253a1.94,1.94,0,0,1-1.717.668.77.77,0,0,1-.716-.716,10.243,10.243,0,0,1,.573-1.763l5.15-12.065c.381-.763.143-1.1-.477-1.1a3.923,3.923,0,0,0-2.813,2c-.287.334-.525.143-.382-.381.429-1.144,1.812-4.005,4.816-4.005A1.687,1.687,0,0,1,94.318,59.777Z"/><path class="cls-1" d="M116.634,58.251c.095.048.143,0,.19-.143.858-2.765,2.48-8.249,3.434-12.254.428-1.431.095-1.622-1.383-2.146-.286-.047-.477-.19-.477-.333s.238-.287.572-.334c.62-.1,4.435-.478,5.054-.478.286,0,.286.525.1,1.336-1.335,4.53-3.147,10.395-4.482,15.116-1.478,5.245-2.766,9.345-3.768,13.161-.19.762-.095,1.1.334,1.1.859,0,2.623-1.478,3.577-2.718.572-.763.572-.095.286.477-1.145,2.384-4.149,5.007-6.581,5.007-.762,0-1.335-.43-1.287-1.192.095-.62.763-2.67,1.812-6.152.095-.382.238-1-.334-.286-3.529,4.673-7.009,7.582-9.537,7.582-1.049,0-2.193-.906-2.193-2.957,0-4.2,3.433-9.679,6.58-12.445,2.051-1.764,4.483-3,6.1-3A2.7,2.7,0,0,1,116.634,58.251ZM111.1,60.922c-3.815,4.387-6.1,10.348-6.1,12.637-.048.762.286,1.048.858,1.048,1.049,0,2.718-1.382,4.387-3.29a27.709,27.709,0,0,0,5.34-9.155,5.656,5.656,0,0,0,.239-2.813c-.239-.811-.572-1.1-.954-1.1S113.248,58.49,111.1,60.922Z"/><path class="cls-1" d="M127.028,58.729a8.6,8.6,0,0,1-.62,2.527c-1.1,2.861-3.719,9.155-4.768,11.635-.286.714-.1.858.143.858.62,0,2.575-1.717,3.385-2.575.668-.715.573,0,.239.524-2.051,2.862-4.625,4.34-6.2,4.34-.381,0-1-.716-1-1.336a12.486,12.486,0,0,1,1.1-3.671c.857-1.955,2.67-6.533,4.195-10.014.191-.524.143-.81-.143-.81-.619,0-1.716.62-3,1.955-.667.715-.762.095-.381-.43,2.05-2.574,4.673-4.1,6.2-4.1C126.742,57.632,126.98,58.251,127.028,58.729ZM128.7,51.48a1.989,1.989,0,0,1-1.86,1.908,1.485,1.485,0,0,1-1.43-1.621,1.973,1.973,0,0,1,1.812-1.955A1.527,1.527,0,0,1,128.7,51.48Z"/><path class="cls-1" d="M137.613,58.538a1.648,1.648,0,0,1,.477,1.239c0,.764-1.05,1.383-1.383,1.383s-.715-.286-1.145-.858c-.619-1.1-1-1.669-1.669-1.669-1,0-2.05,1.24-3.1,3.2a21.9,21.9,0,0,0-2.766,9.728c0,1.621.763,2.479,1.622,2.479,1.192,0,2.861-1.049,4.482-2.909.334-.381.429-.524.572-.524.239,0-.047.81-.334,1.24-1.049,2.193-3.576,4.2-6.056,4.2-1.43,0-3.481-1.288-3.481-4.96a16.642,16.642,0,0,1,1.479-6.055,12.9,12.9,0,0,1,5.865-6.533,6.861,6.861,0,0,1,3.147-.81A3.383,3.383,0,0,1,137.613,58.538Z"/><path class="cls-1" d="M148.055,59.11c.048.048.191,0,.239-.095.667-1.145,1-1.431,1.192-1.431a2.47,2.47,0,0,1,1.335.524.951.951,0,0,1,.143.859c-.382,1.335-3.195,8.726-4.864,13.542-.095.334.048.477.287.477,1.191,0,2.813-1.382,3.957-2.957.286-.286.477-.19.381.192a4.843,4.843,0,0,1-.333.81c-1.335,2.288-4.387,5.054-6.867,5.054-.667,0-1.1-.333-1.049-.763,0-.62,1.288-3.718,2.575-7.152.095-.286-.048-.382-.19-.191-4.96,5.818-8.3,8.106-9.967,8.106-.81,0-1.525-.763-1.525-2.05,0-1.335.954-3.528,2.384-5.627A30.5,30.5,0,0,1,142.19,61.4c1.908-1.479,4.244-2.766,4.816-2.766A1.914,1.914,0,0,1,148.055,59.11Zm-7.534,4.911c-1.764,2-3.719,5.96-3.719,8.2,0,.429.143,1.1.715,1.1.858,0,2.146-1,3.386-2.145a25.061,25.061,0,0,0,6.2-9.68.405.405,0,0,0,0-.334,3.377,3.377,0,0,0-1.43-.429C143.907,60.731,141.952,62.353,140.521,64.021Z"/><path class="cls-1" d="M157.353,59.4c-.191,0-.382.429-.477.667-.668,1.717-2.718,7.678-4.053,11.827-.1.381-.048.762.286.762.477,0,1.955-.762,3.672-2.623.81-.858.572.144.238.62-1.907,2.862-5.34,5.389-6.866,5.389a1.235,1.235,0,0,1-1.1-1.192,10.433,10.433,0,0,1,.572-2.337c.572-1.669,2.718-8.2,4.2-12.446.048-.238.048-.524-.095-.524-.715-.048-1.431,0-1.955-.048-.334-.047-.382-.19-.382-.285,0-.191.477-.477.62-.477a14,14,0,0,1,2.146-.239c.095,0,.286-.239.334-.334a28.718,28.718,0,0,1,1.716-3.433,3.256,3.256,0,0,1,2.242-1.1c.286,0,.286.573.142.906-.333,1.336-.763,2.718-1.049,3.529-.047.143,0,.334.1.334.906,0,2.146-.1,3.48-.1.144,0,.382.1.382.239,0,.1-.238.572-1.048.668C159.451,59.3,157.734,59.4,157.353,59.4Z"/><path class="cls-1" d="M169.7,60.016a5.085,5.085,0,0,1-2.337,3.624,13.626,13.626,0,0,1-6.676,2.48c-.191,0-.381.333-.429.429a16.882,16.882,0,0,0-.858,4.768c0,.906.238,2.336,2,2.336,1.287,0,2.813-1,4.1-2.527.191-.238.334-.381.429-.143.1.095,0,.573-.333,1.193a7.021,7.021,0,0,1-5.913,3.862c-1.622,0-3.338-1.765-3.338-4.626a17.829,17.829,0,0,1,3.147-9.059c2-2.766,5.007-4.721,7.343-4.721C168.94,57.632,169.7,58.872,169.7,60.016Zm-8.965,5.293c-.048.095.048.191.19.143,2.814-.525,6.629-3.863,6.629-5.865,0-.811-.334-1.336-.954-1.336C164.648,58.251,162.168,61.208,160.738,65.309Z"/><path class="cls-1" d="M187.679,58.442a2,2,0,0,0,1,.287c.715,0,2.336-.048,3,0,.382,0,.572.381.572.715,0,.429-.62.858-.954.858-.429,0-1.859-.191-2.622-.239-.048-.047-.144.048-.144.239a12,12,0,0,1,.048,1.383c-.048,2.718-2,6.533-3.91,8.392a7.738,7.738,0,0,1-4.005,2.432,5.415,5.415,0,0,0-1.717.382,1.222,1.222,0,0,0-.81,1.239c0,.764.81,1.765,2.288,2.766a37.711,37.711,0,0,1,4.53,3.433c1.145,1,2.385,2.623,2.385,4.006,0,1.335-1.1,2.718-3,3.671a12.407,12.407,0,0,1-6.008,1.431,13.492,13.492,0,0,1-7.009-2.1,4.107,4.107,0,0,1-2.05-3.386c0-1.144.81-2.051,2.1-2.861a15.589,15.589,0,0,1,5.77-2.05.21.21,0,0,0,.048-.382,4.475,4.475,0,0,1-1.573-3.242,1.825,1.825,0,0,1,.62-1.24A7.236,7.236,0,0,1,178.1,72.8c.1-.048.1-.191-.048-.238a4.782,4.782,0,0,1-2.193-3.911,12.264,12.264,0,0,1,4.482-9.012A8.168,8.168,0,0,1,185.3,57.68,5.4,5.4,0,0,1,187.679,58.442ZM177.571,79.519c-3.148.906-5.579,2.575-5.579,4.148a2.846,2.846,0,0,0,1.573,2.385,14.965,14.965,0,0,0,7.772,1.907c2.528,0,3.624-1,3.624-2a4.184,4.184,0,0,0-1.478-2.671,21.513,21.513,0,0,0-5.2-3.623A1.152,1.152,0,0,0,177.571,79.519Zm4.673-18.883a19.071,19.071,0,0,0-4.149,9.585c0,1.287.524,1.811,1.1,1.811a3.257,3.257,0,0,0,1.955-1.049c2.241-2.193,5.1-8.44,5.149-10.967,0-.906-.286-1.574-1-1.574C184.867,58.442,183.912,58.633,182.244,60.636Z"/><path class="cls-1" d="M199.314,59.11c.048.048.19,0,.238-.095.667-1.145,1-1.431,1.192-1.431a2.467,2.467,0,0,1,1.335.524.948.948,0,0,1,.143.859c-.381,1.335-3.194,8.726-4.863,13.542-.1.334.048.477.286.477,1.191,0,2.813-1.382,3.958-2.957.285-.286.476-.19.381.192a4.947,4.947,0,0,1-.334.81c-1.335,2.288-4.387,5.054-6.866,5.054-.668,0-1.1-.333-1.049-.763,0-.62,1.287-3.718,2.575-7.152.095-.286-.048-.382-.191-.191-4.959,5.818-8.3,8.106-9.966,8.106-.811,0-1.526-.763-1.526-2.05,0-1.335.953-3.528,2.384-5.627a30.457,30.457,0,0,1,6.438-7.009c1.907-1.479,4.244-2.766,4.816-2.766A1.917,1.917,0,0,1,199.314,59.11Zm-7.534,4.911c-1.765,2-3.72,5.96-3.72,8.2,0,.429.143,1.1.716,1.1.858,0,2.145-1,3.385-2.145a25.076,25.076,0,0,0,6.2-9.68.405.405,0,0,0,0-.334,3.388,3.388,0,0,0-1.431-.429C195.165,60.731,193.21,62.353,191.78,64.021Z"/><path class="cls-1" d="M208.69,59.73a53.464,53.464,0,0,1-1.622,5.34c-.142.525.048.668.286.239A42.993,42.993,0,0,1,210.74,60.4c1.288-1.668,2.814-2.813,4.054-2.813a1.7,1.7,0,0,1,1.621,1.812,2.962,2.962,0,0,1-2.289,2.957c-.334,0-.572-.144-.524-.668,0-1.431-.144-2.194-.716-2.194-.763,0-2,1.431-4.387,6.056-1.478,2.813-3.386,6.771-4.673,9.537-.334.668-.763.954-.953.954a1.447,1.447,0,0,1-1.336-.62.865.865,0,0,1-.047-.811c.191-.762,2.432-7.3,4.529-13.3.239-.858.144-1.192-.19-1.192-1.049,0-2.432,1.717-3.242,2.385-.286.238-.43.095-.43-.1.048-1.144,2.051-4.53,4.911-4.53A1.555,1.555,0,0,1,208.69,59.73Z"/><path class="cls-1" d="M225.617,58.251c.1.048.144,0,.192-.143.858-2.765,2.479-8.249,3.432-12.254.43-1.431.1-1.622-1.383-2.146-.286-.047-.476-.19-.476-.333s.238-.287.572-.334c.62-.1,4.435-.478,5.055-.478.286,0,.286.525.094,1.336-1.334,4.53-3.146,10.395-4.481,15.116-1.478,5.245-2.767,9.345-3.768,13.161-.19.762-.1,1.1.334,1.1.859,0,2.622-1.478,3.577-2.718.572-.763.572-.095.286.477-1.145,2.384-4.149,5.007-6.58,5.007-.764,0-1.336-.43-1.288-1.192.095-.62.763-2.67,1.812-6.152.095-.382.238-1-.334-.286-3.528,4.673-7.01,7.582-9.537,7.582-1.049,0-2.193-.906-2.193-2.957,0-4.2,3.433-9.679,6.581-12.445,2.049-1.764,4.481-3,6.1-3A2.7,2.7,0,0,1,225.617,58.251Zm-5.531,2.671c-3.815,4.387-6.1,10.348-6.1,12.637-.047.762.287,1.048.859,1.048,1.049,0,2.718-1.382,4.386-3.29a27.7,27.7,0,0,0,5.341-9.155,5.656,5.656,0,0,0,.239-2.813c-.239-.811-.573-1.1-.954-1.1S222.232,58.49,220.086,60.922Z"/><path class="cls-1" d="M240.637,60.016A5.085,5.085,0,0,1,238.3,63.64a13.626,13.626,0,0,1-6.676,2.48c-.19,0-.381.333-.429.429a16.918,16.918,0,0,0-.858,4.768c0,.906.238,2.336,2,2.336,1.287,0,2.813-1,4.1-2.527.191-.238.334-.381.429-.143.1.095,0,.573-.333,1.193a7.021,7.021,0,0,1-5.913,3.862c-1.621,0-3.338-1.765-3.338-4.626a17.83,17.83,0,0,1,3.148-9.059c2-2.766,5.006-4.721,7.342-4.721C239.874,57.632,240.637,58.872,240.637,60.016Zm-8.965,5.293c-.048.095.048.191.19.143,2.814-.525,6.629-3.863,6.629-5.865,0-.811-.334-1.336-.954-1.336C235.582,58.251,233.1,61.208,231.672,65.309Z"/><path class="cls-1" d="M245.6,59.777a43.564,43.564,0,0,1-2,5.055c-.192.524.048.572.334.143,2.24-2.861,6.008-7.295,9.632-7.295a1.768,1.768,0,0,1,1.716,1.859,8.8,8.8,0,0,1-.81,2.861c-1.1,2.956-3.291,7.915-3.91,9.442-.192.524-.1.667.238.667.572,0,2.527-1.431,3.91-2.956.477-.429.524.142.095.762-2.146,3.148-5.912,5.675-7.725,5.675-.715,0-.906-1.049-.715-1.526.191-.572,5.15-11.349,5.912-13.637.287-1,.1-1.669-.667-1.669-1.048,0-2.861,1.1-5.531,4.625-2.431,3.481-4.482,7.677-6.533,11.253a1.936,1.936,0,0,1-1.716.668.77.77,0,0,1-.716-.716,10.243,10.243,0,0,1,.573-1.763l5.15-12.065c.381-.763.143-1.1-.478-1.1a3.927,3.927,0,0,0-2.813,2c-.286.334-.524.143-.381-.381.429-1.144,1.812-4.005,4.816-4.005A1.689,1.689,0,0,1,245.6,59.777Z"/><path class="cls-1" d="M290.751,76.753a3.327,3.327,0,0,1-.334,1.811,9.9,9.9,0,0,0-.715,3.624c0,.573.191,1.145.811,1.145a1.869,1.869,0,0,0,1.43-.905c.143-.24.191-.24.429-.048a1.629,1.629,0,0,1,.524,1.287,1.645,1.645,0,0,1-1.669,1.287c-1.239,0-2.145-1.859-2.336-2.145a.656.656,0,0,0-.62-.429,10.417,10.417,0,0,1-4.959-2A20.264,20.264,0,0,1,281.4,77.9a10.552,10.552,0,0,1-2.288-6.485,24.175,24.175,0,0,1,.572-4.148c.1-.239-.286-.429-.524-.381-.334.095-3.434,1-3.863,1.239-.381.286-.572.334-.763.477a1.031,1.031,0,0,0-.381.477c-.1.286-.477,2.766-.572,3.052a1.862,1.862,0,0,0,.333,1.049c.143.382.286.476.191.81a16.03,16.03,0,0,1-4.148,6.2c-2.193,1.955-3.482,3.194-6.3,3.194a5.158,5.158,0,0,1-4.053-2.336c-.142-.286-.048-.382.191-.334h.858c1.907,0,4.244-.716,4.244-4.721a12.187,12.187,0,0,0-.238-2c-.1-.428.763-1.287,1.049-1.383.238-.143.286.1.476.382.62,1,1.336,1.43,3.148,1.43,2.1,0,3.624-1.287,3.624-4.815,0-.955-.382-1-.763-1.049a13.842,13.842,0,0,1-5.817-1.527,7.4,7.4,0,0,1-4.006-5.245c-.143-.81-.191-2.146-.286-2.67a2.608,2.608,0,0,0-.429-1.192,2.628,2.628,0,0,1-.286-1.335,2.306,2.306,0,0,0-.334-1.1,2.551,2.551,0,0,1-.716-1.478,3.362,3.362,0,0,1,0-1.192,6.054,6.054,0,0,1,.334-1.192.547.547,0,0,1,.524-.43,2.368,2.368,0,0,1,1.479.43,2.505,2.505,0,0,1,.906,1.1.759.759,0,0,1-.238.477,6.057,6.057,0,0,0-1.05,2.814c0,.381-.333,1.192,1.813,1.907a55.9,55.9,0,0,0,6.055,1.478,2.3,2.3,0,0,1,1.049.572c.811.763,2.861,4.578,2.861,6.009,0,.286,0,.381.334.476a4.394,4.394,0,0,0,1.478.144,8.729,8.729,0,0,0,4.148-1.67c.43-.286.192-.762-.094-1-.334-.286-2.194-2.432-2.194-4.339a7.863,7.863,0,0,1,5.054-7.105A42.194,42.194,0,0,1,288.128,51c2.241-.572,2.957-2.051,2.813-2.957-.047-.191.1-.191.286-.047.239.095.907.333.907,1.573a6.2,6.2,0,0,1-1.86,3.624.665.665,0,0,0-.143.716,5.884,5.884,0,0,0,1.383.858c.572.286.954.572.954.954,0,.333.047.381-.62,1.144a7.555,7.555,0,0,1-3.624,1.382,13.658,13.658,0,0,1-4.245-1.382,6.816,6.816,0,0,0-3-.668c-1,0-2.051.62-2.051,3.005,0,2.765,2.337,5.2,4.34,5.2.858,0,2.241-.811,3.624-1.478,1.43-.716,4.434-2.48,7.438-2.48a8.624,8.624,0,0,1,5.817,2.146c2.48,2.718,3.72,4.148,5.96,4.339a1.255,1.255,0,0,1,.955.382c.238.334,0,.62-.334.858a27.539,27.539,0,0,1-2.242,2.051,18.3,18.3,0,0,1-8.773,2.67,24.872,24.872,0,0,1-2.861-.334c-.573-.048-.906-.239-1.669-.953-1.145-1.1-3.386-3.816-4.721-4.626a5.511,5.511,0,0,0-2.146-.954c-1.1,0-4.292,2.528-4.292,4.864a3.43,3.43,0,0,0,3.53,3.624,13.151,13.151,0,0,0,3.48-.715,3.061,3.061,0,0,1,.906-.192A2.855,2.855,0,0,1,290.751,76.753Zm-18.263-10.3c.286-.19.333-.572.333-1a6.527,6.527,0,0,0-1.335-3.624,3.32,3.32,0,0,0-2.05-1.335c-.715-.191-5.2-.62-5.484-.62-.286-.048-.333,0-.429.238a4.4,4.4,0,0,0-.143,1.431c0,3.338,4.054,5.245,7.2,5.245C271.964,66.787,272.249,66.739,272.488,66.453Z"/></svg>